<svg preserveAspectRatio="none" width="100%" height="100%" overflow="visible" style="display: block;" viewBox="0 0 382 275" fill="none" xmlns="http://www.w3.org/2000/svg">
<path id="Vector 223" d="M382 217.072L0 274.268V235.678L69.1413 229.016L66.3848 228.557L64.7769 227.408C64.5472 227.179 64.5472 226.26 66.3848 224.422C68.6819 222.125 71.6681 217.99 71.6681 217.531C71.6681 217.072 69.371 215.923 67.7631 215.234C66.1551 214.545 56.2778 214.315 55.5887 214.085L55.5419 214.07C54.854 213.842 53.7645 213.482 44.3331 207.194C34.6855 200.762 34.2261 195.02 33.9964 193.412C33.7667 191.804 37.442 33.0776 37.9014 30.7805C38.3608 28.4835 38.5905 28.7132 47.0896 20.9032C53.8889 14.6552 57.8857 12.7869 59.0343 12.6338C81.4688 8.42253 127.441 0 131.851 0C137.364 0 320.669 30.7805 328.019 36.0637C333.9 40.2903 342.874 50.0758 346.625 54.4402C347.161 57.5795 348.095 64.685 347.544 67.9928C346.993 71.3006 343.027 72.2806 341.112 72.3572C341.112 89.3554 341.342 123.352 342.261 123.352C343.18 123.352 346.166 124.117 347.544 124.5C347.468 132.004 347.36 147.241 347.544 148.16C347.728 149.079 348.386 149.462 348.693 149.538V151.606L350.301 153.673V169.063C350.148 169.982 349.336 173.29 347.314 179.17C345.293 185.051 338.662 194.178 335.6 198.006L357.651 195.479L382 197.317V217.072Z" fill="var(--fill-0, black)"/>
</svg>
