<svg preserveAspectRatio="none" width="100%" height="100%" overflow="visible" style="display: block;" viewBox="0 0 67 63" fill="none" xmlns="http://www.w3.org/2000/svg">
<g id="Union" filter="url(#filter0_d_3304_2360)">
<path d="M42.4648 22.5225C42.6292 22.6663 43.1419 23.0763 43.8799 23.5684C44.803 24.1837 50.7727 29.0452 53.665 31.7529C56.5572 34.4606 58.2187 37.8453 58.4648 39.876C58.711 41.9067 59.0796 45.2297 56.9258 48.5527C54.772 51.8757 52.7417 52.9841 50.1572 54.0303C47.5726 55.0764 43.5722 55.4455 39.5723 54.707C36.3723 54.1163 33.1517 52.5324 31.9414 51.8145V44.7988L33.1104 44.1836C33.5206 45.1681 34.7107 47.568 36.1875 49.291C38.0337 51.4449 41.3569 52.7373 43.3877 52.7373C45.4185 52.7373 47.8187 52.6762 50.3418 50.8916C52.8648 49.107 53.6026 45.6607 53.2334 43.3838C52.8642 41.1069 51.6334 39.568 49.3564 36.7988C47.5349 34.5837 43.8393 31.6918 42.2188 30.5225C42.3213 29.9686 42.5509 28.5038 42.6494 27.0762C42.7479 25.6486 42.5674 23.4457 42.4648 22.5225ZM24.8027 7.01465C25.2947 7.01534 25.2342 6.93623 27.2031 7.1377C30.2182 7.44626 32.9262 8.30717 36.4336 11.2607C40.0674 14.3209 42.1562 20.2453 42.0947 23.876C42.0332 27.5067 42.5869 32.4301 38.2178 39.1377C34.7224 44.5036 28.6383 46.2148 26.0332 46.3994C23.674 46.6659 17.9355 46.1028 13.8496 41.7217C8.74232 36.245 7.94147 29.661 8.00293 26.707C8.06449 23.7531 8.61827 17.3526 12.8027 12.5527C16.1503 8.71288 20.8031 7.3429 22.7109 7.1377L24.8027 7.01465ZM25.0488 8.9834C24.0845 8.94247 21.6766 9.26637 19.7568 10.6445C17.3569 12.3676 15.3263 16.8605 15.0186 20.6758C14.7109 24.4911 14.4031 29.5371 15.5723 34.5215C16.7414 39.5058 18.8336 41.7828 20.7412 43.1367C22.6484 44.4902 26.1548 44.1827 26.8945 44.0596C27.633 43.9365 30.0336 43.8134 32.4951 40.0596C34.9564 36.3056 35.5108 29.0445 35.4492 26.46C35.3877 23.8752 35.0795 17.2907 33.0488 13.9678C31.0183 10.6452 29.2336 9.96787 28.5566 9.59863C27.8796 9.22948 26.3409 8.9834 25.9102 8.9834H25.0488ZM40.3105 7.69141C43.2028 7.07604 46.4028 7.01456 48.5566 7.56836C50.2797 8.01143 53.7877 9.27039 55.3262 9.84473C55.2441 10.5216 55.0924 12.1095 55.1416 13.0449C55.1908 13.9803 55.1621 17.8248 55.1416 19.6299L54.0342 19.7529C54.0137 18.8504 53.8119 16.713 53.1719 15.3838C52.3719 13.7223 51.1411 11.7532 49.2334 10.7686C47.3258 9.784 46.0951 9.53714 44.1875 9.41406C42.2799 9.29103 40.5568 9.96849 39.6338 11.1377C38.8958 12.0725 38.5881 12.6754 38.5264 12.8604L35.8799 10.2764C36.3927 9.61997 37.9968 8.18375 40.3105 7.69141Z" fill="var(--fill-0, #FEFEFE)"/>
</g>
<defs>
<filter id="filter0_d_3304_2360" x="0.615169" y="0.107605" width="65.4244" height="62.8634" filterUnits="userSpaceOnUse" color-interpolation-filters="sRGB">
<feFlood flood-opacity="0" result="BackgroundImageFix"/>
<feColorMatrix in="SourceAlpha" type="matrix" values="0 0 0 0 0 0 0 0 0 0 0 0 0 0 0 0 0 0 127 0" result="hardAlpha"/>
<feOffset dy="0.492308"/>
<feGaussianBlur stdDeviation="3.69231"/>
<feComposite in2="hardAlpha" operator="out"/>
<feColorMatrix type="matrix" values="0 0 0 0 0.0391087 0 0 0 0 0.67325 0 0 0 0 0.903846 0 0 0 1 0"/>
<feBlend mode="normal" in2="BackgroundImageFix" result="effect1_dropShadow_3304_2360"/>
<feBlend mode="normal" in="SourceGraphic" in2="effect1_dropShadow_3304_2360" result="shape"/>
</filter>
</defs>
</svg>
