<svg preserveAspectRatio="none" width="100%" height="100%" overflow="visible" style="display: block;" viewBox="0 0 67 63" fill="none" xmlns="http://www.w3.org/2000/svg">
<g id="Union" filter="url(#filter0_d_3305_2158)">
<path d="M42.4648 22.5215C42.6289 22.6651 43.1416 23.0752 43.8799 23.5674C44.803 24.1828 50.7727 29.0443 53.665 31.752C56.5572 34.4595 58.2185 37.8442 58.4648 39.875C58.711 41.9058 59.0806 45.2297 56.9268 48.5527C54.773 51.8757 52.7418 52.9832 50.1572 54.0293C47.5726 55.0754 43.5723 55.4445 39.5723 54.7061C36.3723 54.1153 33.1516 52.5314 31.9414 51.8135V44.7988L33.1113 44.1836C33.5218 45.1686 34.7109 47.5683 36.1875 49.291C38.0336 51.4448 41.3569 52.7373 43.3877 52.7373C45.4185 52.7373 47.8187 52.6752 50.3418 50.8906C52.8647 49.106 53.6036 45.6597 53.2344 43.3828C52.8651 41.1061 51.6341 39.5677 49.3574 36.7988C47.5359 34.5835 43.8393 31.6907 42.2188 30.5215C42.3213 29.9676 42.551 28.5028 42.6494 27.0752C42.7478 25.6475 42.5674 23.4445 42.4648 22.5215ZM24.8027 7.01465C25.2948 7.01535 25.2341 6.93622 27.2031 7.1377C30.2183 7.44625 32.926 8.30697 36.4336 11.2607C40.0674 14.321 42.1563 20.2453 42.0947 23.876C42.0332 27.5067 42.5878 32.4303 38.2188 39.1377C34.7233 44.5036 28.6383 46.2138 26.0332 46.3984C23.6739 46.6649 17.9354 46.1028 13.8496 41.7217C8.74204 36.2449 7.94143 29.66 8.00293 26.7061C8.06451 23.7521 8.61872 17.3524 12.8027 12.5527C16.1503 8.7129 20.8031 7.34292 22.7109 7.1377L24.8027 7.01465ZM25.0488 8.98242C24.0843 8.94155 21.6765 9.26635 19.7568 10.6445C17.357 12.3677 15.3264 16.8597 15.0186 20.6748C14.7109 24.4902 14.4031 29.537 15.5723 34.5215C16.7415 39.5058 18.8336 41.7829 20.7412 43.1367C22.6487 44.4904 26.1565 44.1827 26.8955 44.0596C27.6343 43.9365 30.034 43.8126 32.4951 40.0596C34.9565 36.3058 35.5107 29.0448 35.4492 26.46C35.3877 23.8754 35.0795 17.2908 33.0488 13.9678C31.0181 10.6449 29.2336 9.96787 28.5566 9.59863C27.8797 9.22943 26.3409 8.98242 25.9102 8.98242H25.0488ZM40.3105 7.69043C43.2027 7.07509 46.4028 7.01365 48.5566 7.56738C50.2797 8.01046 53.7877 9.27039 55.3262 9.84473C55.2441 10.5217 55.0925 12.1086 55.1416 13.0439C55.1908 13.9793 55.1621 17.8237 55.1416 19.6289L54.0342 19.752C54.0137 18.8493 53.8128 16.712 53.1729 15.3828C52.3729 13.7214 51.1419 11.7523 49.2344 10.7676C47.3267 9.78296 46.0952 9.53714 44.1875 9.41406C42.2799 9.29107 40.5568 9.96755 39.6338 11.1367C38.8954 12.0721 38.5879 12.6757 38.5264 12.8604L35.8799 10.2754C36.3927 9.61901 37.9969 8.1828 40.3105 7.69043Z" fill="var(--fill-0, white)"/>
</g>
<defs>
<filter id="filter0_d_3305_2158" x="0.615165" y="0.107603" width="65.4247" height="62.8624" filterUnits="userSpaceOnUse" color-interpolation-filters="sRGB">
<feFlood flood-opacity="0" result="BackgroundImageFix"/>
<feColorMatrix in="SourceAlpha" type="matrix" values="0 0 0 0 0 0 0 0 0 0 0 0 0 0 0 0 0 0 127 0" result="hardAlpha"/>
<feOffset dy="0.492308"/>
<feGaussianBlur stdDeviation="3.69231"/>
<feComposite in2="hardAlpha" operator="out"/>
<feColorMatrix type="matrix" values="0 0 0 0 0.0391087 0 0 0 0 0.67325 0 0 0 0 0.903846 0 0 0 1 0"/>
<feBlend mode="normal" in2="BackgroundImageFix" result="effect1_dropShadow_3305_2158"/>
<feBlend mode="normal" in="SourceGraphic" in2="effect1_dropShadow_3305_2158" result="shape"/>
</filter>
</defs>
</svg>
