<svg preserveAspectRatio="none" width="100%" height="100%" overflow="visible" style="display: block;" viewBox="0 0 3253 1081" fill="none" xmlns="http://www.w3.org/2000/svg">
<path id="grid pattern" opacity="0.25" d="M3252.2 4.67188H3250.03V134.467H3252.2V139.139H3250.03V268.933H3252.2V273.604H3250.03V403.399H3252.2V408.071H3250.03V537.865H3252.2V542.537H3250.03V672.331H3252.2V677.003H3250.03V806.798H3252.2V811.47H3250.03V941.264H3252.2V945.936H3250.03V1075.73H3252.2V1080.4H7.96973V1075.73H135.223V945.936H7.96973V941.264H135.223V811.47H7.96973V806.798H135.223V677.003H7.96973V672.331H135.223V542.537H7.96973V537.865H135.223V408.071H7.96973V403.399H135.223V273.604H7.96973V268.933H135.223V139.139H7.96973V134.467H135.223V4.67188H7.96973V0H3252.2V4.67188ZM4.67188 1078.06H0V2.33594H4.67188V1078.06ZM139.895 1075.73H270.446V945.936H139.895V1075.73ZM275.118 1075.73H405.669V945.936H275.118V1075.73ZM410.341 1075.73H540.893V945.936H410.341V1075.73ZM545.564 1075.73H676.115V945.936H545.564V1075.73ZM680.787 1075.73H811.338V945.936H680.787V1075.73ZM816.01 1075.73H946.562V945.936H816.01V1075.73ZM951.234 1075.73H1081.79V945.936H951.234V1075.73ZM1086.46 1075.73H1217.01V945.936H1086.46V1075.73ZM1221.68 1075.73H1352.23V945.936H1221.68V1075.73ZM1356.9 1075.73H1487.45V945.936H1356.9V1075.73ZM1492.13 1075.73H1622.68V945.936H1492.13V1075.73ZM1627.35 1075.73H1757.9V945.936H1627.35V1075.73ZM1762.57 1075.73H1893.12V945.936H1762.57V1075.73ZM1897.8 1075.73H2028.35V945.936H1897.8V1075.73ZM2033.02 1075.73H2163.57V945.936H2033.02V1075.73ZM2168.24 1075.73H2298.79V945.936H2168.24V1075.73ZM2303.46 1075.73H2434.02V945.936H2303.46V1075.73ZM2438.69 1075.73H2569.24V945.936H2438.69V1075.73ZM2573.91 1075.73H2704.46V945.936H2573.91V1075.73ZM2709.13 1075.73H2839.69V945.936H2709.13V1075.73ZM2844.36 1075.73H2974.91V945.936H2844.36V1075.73ZM2979.58 1075.73H3110.13V945.936H2979.58V1075.73ZM3114.8 1075.73H3245.36V945.936H3114.8V1075.73ZM139.895 941.264H270.446V811.47H139.895V941.264ZM275.118 941.264H405.669V811.47H275.118V941.264ZM410.341 941.264H540.893V811.47H410.341V941.264ZM545.564 941.264H676.115V811.47H545.564V941.264ZM680.787 941.264H811.338V811.47H680.787V941.264ZM816.01 941.264H946.562V811.47H816.01V941.264ZM951.234 941.264H1081.79V811.47H951.234V941.264ZM1086.46 941.264H1217.01V811.47H1086.46V941.264ZM1221.68 941.264H1352.23V811.47H1221.68V941.264ZM1356.9 941.264H1487.45V811.47H1356.9V941.264ZM1492.13 941.264H1622.68V811.47H1492.13V941.264ZM1627.35 941.264H1757.9V811.47H1627.35V941.264ZM1762.57 941.264H1893.12V811.47H1762.57V941.264ZM1897.8 941.264H2028.35V811.47H1897.8V941.264ZM2033.02 941.264H2163.57V811.47H2033.02V941.264ZM2168.24 941.264H2298.79V811.47H2168.24V941.264ZM2303.46 941.264H2434.02V811.47H2303.46V941.264ZM2438.69 941.264H2569.24V811.47H2438.69V941.264ZM2573.91 941.264H2704.46V811.47H2573.91V941.264ZM2709.13 941.264H2839.69V811.47H2709.13V941.264ZM2844.36 941.264H2974.91V811.47H2844.36V941.264ZM2979.58 941.264H3110.13V811.47H2979.58V941.264ZM3114.8 941.264H3245.36V811.47H3114.8V941.264ZM139.895 806.798H270.446V677.003H139.895V806.798ZM275.118 806.798H405.669V677.003H275.118V806.798ZM410.341 806.798H540.893V677.003H410.341V806.798ZM545.564 806.798H676.115V677.003H545.564V806.798ZM680.787 806.798H811.338V677.003H680.787V806.798ZM816.01 806.798H946.562V677.003H816.01V806.798ZM951.234 806.798H1081.79V677.003H951.234V806.798ZM1086.46 806.798H1217.01V677.003H1086.46V806.798ZM1221.68 806.798H1352.23V677.003H1221.68V806.798ZM1356.9 806.798H1487.45V677.003H1356.9V806.798ZM1492.13 806.798H1622.68V677.003H1492.13V806.798ZM1627.35 806.798H1757.9V677.003H1627.35V806.798ZM1762.57 806.798H1893.12V677.003H1762.57V806.798ZM1897.8 806.798H2028.35V677.003H1897.8V806.798ZM2033.02 806.798H2163.57V677.003H2033.02V806.798ZM2168.24 806.798H2298.79V677.003H2168.24V806.798ZM2303.46 806.798H2434.02V677.003H2303.46V806.798ZM2438.69 806.798H2569.24V677.003H2438.69V806.798ZM2573.91 806.798H2704.46V677.003H2573.91V806.798ZM2709.13 806.798H2839.69V677.003H2709.13V806.798ZM2844.36 806.798H2974.91V677.003H2844.36V806.798ZM2979.58 806.798H3110.13V677.003H2979.58V806.798ZM3114.8 806.798H3245.36V677.003H3114.8V806.798ZM139.895 672.331H270.446V542.537H139.895V672.331ZM275.118 672.331H405.669V542.537H275.118V672.331ZM410.341 672.331H540.893V542.537H410.341V672.331ZM545.564 672.331H676.115V542.537H545.564V672.331ZM680.787 672.331H811.338V542.537H680.787V672.331ZM816.01 672.331H946.562V542.537H816.01V672.331ZM951.234 672.331H1081.79V542.537H951.234V672.331ZM1086.46 672.331H1217.01V542.537H1086.46V672.331ZM1221.68 672.331H1352.23V542.537H1221.68V672.331ZM1356.9 672.331H1487.45V542.537H1356.9V672.331ZM1492.13 672.331H1622.68V542.537H1492.13V672.331ZM1627.35 672.331H1757.9V542.537H1627.35V672.331ZM1762.57 672.331H1893.12V542.537H1762.57V672.331ZM1897.8 672.331H2028.35V542.537H1897.8V672.331ZM2033.02 672.331H2163.57V542.537H2033.02V672.331ZM2168.24 672.331H2298.79V542.537H2168.24V672.331ZM2303.46 672.331H2434.02V542.537H2303.46V672.331ZM2438.69 672.331H2569.24V542.537H2438.69V672.331ZM2573.91 672.331H2704.46V542.537H2573.91V672.331ZM2709.13 672.331H2839.69V542.537H2709.13V672.331ZM2844.36 672.331H2974.91V542.537H2844.36V672.331ZM2979.58 672.331H3110.13V542.537H2979.58V672.331ZM3114.8 672.331H3245.36V542.537H3114.8V672.331ZM139.895 537.865H270.446V408.071H139.895V537.865ZM275.118 537.865H405.669V408.071H275.118V537.865ZM410.341 537.865H540.893V408.071H410.341V537.865ZM545.564 537.865H676.115V408.071H545.564V537.865ZM680.787 537.865H811.338V408.071H680.787V537.865ZM816.01 537.865H946.562V408.071H816.01V537.865ZM951.234 537.865H1081.79V408.071H951.234V537.865ZM1086.46 537.865H1217.01V408.071H1086.46V537.865ZM1221.68 537.865H1352.23V408.071H1221.68V537.865ZM1356.9 537.865H1487.45V408.071H1356.9V537.865ZM1492.13 537.865H1622.68V408.071H1492.13V537.865ZM1627.35 537.865H1757.9V408.071H1627.35V537.865ZM1762.57 537.865H1893.12V408.071H1762.57V537.865ZM1897.8 537.865H2028.35V408.071H1897.8V537.865ZM2033.02 537.865H2163.57V408.071H2033.02V537.865ZM2168.24 537.865H2298.79V408.071H2168.24V537.865ZM2303.46 537.865H2434.02V408.071H2303.46V537.865ZM2438.69 537.865H2569.24V408.071H2438.69V537.865ZM2573.91 537.865H2704.46V408.071H2573.91V537.865ZM2709.13 537.865H2839.69V408.071H2709.13V537.865ZM2844.36 537.865H2974.91V408.071H2844.36V537.865ZM2979.58 537.865H3110.13V408.071H2979.58V537.865ZM3114.8 537.865H3245.36V408.071H3114.8V537.865ZM139.895 403.399H270.446V273.604H139.895V403.399ZM275.118 403.399H405.669V273.604H275.118V403.399ZM410.341 403.399H540.893V273.604H410.341V403.399ZM545.564 403.399H676.115V273.604H545.564V403.399ZM680.787 403.399H811.338V273.604H680.787V403.399ZM816.01 403.399H946.562V273.604H816.01V403.399ZM951.234 403.399H1081.79V273.604H951.234V403.399ZM1086.46 403.399H1217.01V273.604H1086.46V403.399ZM1221.68 403.399H1352.23V273.604H1221.68V403.399ZM1356.9 403.399H1487.45V273.604H1356.9V403.399ZM1492.13 403.399H1622.68V273.604H1492.13V403.399ZM1627.35 403.399H1757.9V273.604H1627.35V403.399ZM1762.57 403.399H1893.12V273.604H1762.57V403.399ZM1897.8 403.399H2028.35V273.604H1897.8V403.399ZM2033.02 403.399H2163.57V273.604H2033.02V403.399ZM2168.24 403.399H2298.79V273.604H2168.24V403.399ZM2303.46 403.399H2434.02V273.604H2303.46V403.399ZM2438.69 403.399H2569.24V273.604H2438.69V403.399ZM2573.91 403.399H2704.46V273.604H2573.91V403.399ZM2709.13 403.399H2839.69V273.604H2709.13V403.399ZM2844.36 403.399H2974.91V273.604H2844.36V403.399ZM2979.58 403.399H3110.13V273.604H2979.58V403.399ZM3114.8 403.399H3245.36V273.604H3114.8V403.399ZM139.895 268.933H270.446V139.139H139.895V268.933ZM275.118 268.933H405.669V139.139H275.118V268.933ZM410.341 268.933H540.893V139.139H410.341V268.933ZM545.564 268.933H676.115V139.139H545.564V268.933ZM680.787 268.933H811.338V139.139H680.787V268.933ZM816.01 268.933H946.562V139.139H816.01V268.933ZM951.234 268.933H1081.79V139.139H951.234V268.933ZM1086.46 268.933H1217.01V139.139H1086.46V268.933ZM1221.68 268.933H1352.23V139.139H1221.68V268.933ZM1356.9 268.933H1487.45V139.139H1356.9V268.933ZM1492.13 268.933H1622.68V139.139H1492.13V268.933ZM1627.35 268.933H1757.9V139.139H1627.35V268.933ZM1762.57 268.933H1893.12V139.139H1762.57V268.933ZM1897.8 268.933H2028.35V139.139H1897.8V268.933ZM2033.02 268.933H2163.57V139.139H2033.02V268.933ZM2168.24 268.933H2298.79V139.139H2168.24V268.933ZM2303.46 268.933H2434.02V139.139H2303.46V268.933ZM2438.69 268.933H2569.24V139.139H2438.69V268.933ZM2573.91 268.933H2704.46V139.139H2573.91V268.933ZM2709.13 268.933H2839.69V139.139H2709.13V268.933ZM2844.36 268.933H2974.91V139.139H2844.36V268.933ZM2979.58 268.933H3110.13V139.139H2979.58V268.933ZM3114.8 268.933H3245.36V139.139H3114.8V268.933ZM139.895 134.467H270.446V4.67188H139.895V134.467ZM275.118 134.467H405.669V4.67188H275.118V134.467ZM410.341 134.467H540.893V4.67188H410.341V134.467ZM545.564 134.467H676.115V4.67188H545.564V134.467ZM680.787 134.467H811.338V4.67188H680.787V134.467ZM816.01 134.467H946.562V4.67188H816.01V134.467ZM951.234 134.467H1081.79V4.67188H951.234V134.467ZM1086.46 134.467H1217.01V4.67188H1086.46V134.467ZM1221.68 134.467H1352.23V4.67188H1221.68V134.467ZM1356.9 134.467H1487.45V4.67188H1356.9V134.467ZM1492.13 134.467H1622.68V4.67188H1492.13V134.467ZM1627.35 134.467H1757.9V4.67188H1627.35V134.467ZM1762.57 134.467H1893.12V4.67188H1762.57V134.467ZM1897.8 134.467H2028.35V4.67188H1897.8V134.467ZM2033.02 134.467H2163.57V4.67188H2033.02V134.467ZM2168.24 134.467H2298.79V4.67188H2168.24V134.467ZM2303.46 134.467H2434.02V4.67188H2303.46V134.467ZM2438.69 134.467H2569.24V4.67188H2438.69V134.467ZM2573.91 134.467H2704.46V4.67188H2573.91V134.467ZM2709.13 134.467H2839.69V4.67188H2709.13V134.467ZM2844.36 134.467H2974.91V4.67188H2844.36V134.467ZM2979.58 134.467H3110.13V4.67188H2979.58V134.467ZM3114.8 134.467H3245.36V4.67188H3114.8V134.467Z" fill="url(#paint0_radial_3305_2172)"/>
<defs>
<radialGradient id="paint0_radial_3305_2172" cx="0" cy="0" r="1" gradientUnits="userSpaceOnUse" gradientTransform="translate(1626.1 540.201) rotate(90) scale(478.544 1440.5)">
<stop stop-color="#798BFF"/>
<stop offset="1" stop-color="#0A0061"/>
</radialGradient>
</defs>
</svg>
