<svg preserveAspectRatio="none" width="100%" height="100%" overflow="visible" style="display: block;" viewBox="0 0 410 427" fill="none" xmlns="http://www.w3.org/2000/svg">
<path id="Vector 224" d="M0 60.7988L0.750602 356.536L1.35397 426.342H409.078V126.101L406.827 125.351L406.076 123.099L403.824 123.849L396.318 120.847V114.842L394.817 114.092L386.56 117.845L379.054 114.092V106.586L376.802 107.336L368.546 110.339L352.783 104.334V102.082H351.282V103.583L346.778 101.331H343.776V104.334L341.524 106.586L322.759 113.341L322.008 111.089L319.006 111.84L318.255 114.092L297.989 122.348V120.096L294.236 120.847L293.486 123.099L274.72 130.605V128.353L270.217 129.854L248.449 137.36V376.802L195.907 375.301V43.5349L190.653 41.2831V39.7819L189.152 38.2807L186.9 39.7819L167.384 32.2759V25.5205L165.133 23.2687L156.876 27.7723L138.111 21.0169V15.012L136.61 12.0096L135.108 10.5084L126.101 15.7627L96.8277 5.25422V3.00241L95.3265 2.25181L93.0747 3.00241L86.3193 0.750602H84.8181L83.3169 0L81.8157 0.750602V3.75301L63.0506 17.2639L61.5494 16.5133L59.2976 17.2639V20.2663L40.5325 33.7771L39.7819 32.2759L37.5301 33.0265V36.0289L21.0169 47.288L19.5157 46.5373L18.0145 47.288V49.5398L3.75301 60.0482H1.5012L0 60.7988Z" fill="var(--fill-0, black)"/>
</svg>
