<svg preserveAspectRatio="none" width="100%" height="100%" overflow="visible" style="display: block;" viewBox="0 0 275 287" fill="none" xmlns="http://www.w3.org/2000/svg">
<path id="Vector 224" d="M0 40.7928L0.503614 239.217L0.908444 286.053H274.47V84.6072L272.959 84.1036L272.455 82.5928L270.945 83.0964L265.908 81.0819V77.053L264.901 76.5494L259.361 79.0675L254.325 76.5494V71.5132L252.814 72.0169L247.275 74.0313L236.699 70.0024V68.4916H235.692V69.4988L232.67 67.9879H230.655V70.0024L229.145 71.5132L216.554 76.0458L216.051 74.5349L214.036 75.0386L213.533 76.5494L199.935 82.0891V80.5783L197.417 81.0819L196.913 82.5928L184.323 87.6289V86.1181L181.301 87.1253L166.696 92.1614V252.814L131.443 251.807V29.2096L127.918 27.6988V26.6916L126.911 25.6843L125.4 26.6916L112.306 21.6554V17.1229L110.795 15.612L105.255 18.6337L92.6651 14.1012V10.0723L91.6578 8.05783L90.6506 7.0506L84.6072 10.5759L64.9663 3.5253V2.01446L63.959 1.51084L62.4482 2.01446L57.9157 0.503614H56.9084L55.9012 0L54.894 0.503614V2.51807L42.3036 11.5831L41.2964 11.0795L39.7855 11.5831V13.5976L27.1952 22.6626L26.6916 21.6554L25.1807 22.159V24.1735L14.1012 31.7277L13.094 31.2241L12.0867 31.7277V33.2386L2.51807 40.2892H1.00723L0 40.7928Z" fill="var(--fill-0, black)"/>
</svg>
