<svg preserveAspectRatio="none" width="100%" height="100%" overflow="visible" style="display: block;" viewBox="0 0 9323 2593" fill="none" xmlns="http://www.w3.org/2000/svg">
<g id="hero pattern" opacity="0.25">
<path id="Vector" d="M148.832 1141.74C-23.4589 1110.21 -20.3001 1508.13 83.3169 1640.24C215.302 1808.45 494.834 1528.51 623.318 1609.75C675.793 1642.96 668.974 1407.98 634.08 1198.96C599.81 993.007 536.07 814.387 455.728 939.258C400.302 1025.09 370.268 1182.45 148.832 1141.74Z" stroke="var(--stroke-0, #0059FF)" stroke-width="7.0462" stroke-miterlimit="10"/>
<path id="Vector_2" d="M5546.57 1171.18C5002.49 1241.8 4709.16 1484.89 4927.67 1609.17C5169.09 1746.41 6678.68 1725.56 6851.89 1692.09C7025.11 1658.63 5609.01 1551.55 5802.24 1425.27C6016.85 1285.11 7094.5 1284.92 7065.15 1225.07C7036.31 1166.18 6175.48 1089.56 5546.57 1171.18Z" stroke="var(--stroke-0, #0059FF)" stroke-width="7.0462" stroke-miterlimit="10"/>
<path id="Vector_3" d="M5376.24 1153.91C4738.51 1215.45 4461.81 1509.7 4742.92 1648.32C5061.53 1805.33 6701.58 1747.14 6945.04 1722.29C7154.9 1700.9 5792.58 1556.89 5955.44 1404.31C6132.22 1238.53 7104.17 1211.6 7031.56 1173.14C6953.52 1131.91 6124.59 1081.86 5376.24 1153.91Z" stroke="var(--stroke-0, #0059FF)" stroke-width="7.0462" stroke-miterlimit="10"/>
<path id="Vector_4" d="M5205.92 1136.68C4475.56 1188.95 4214.97 1534.47 4558.18 1687.44C4954.66 1864.38 6711.43 1768.22 7038.19 1752.52C7275.7 1740.98 5977.34 1562.43 6108.48 1383.27C6248.45 1192.18 7135.74 1136.14 6997.98 1121.48C6895.17 1095.52 6076.42 1074.33 5205.92 1136.68Z" stroke="var(--stroke-0, #0059FF)" stroke-width="7.0462" stroke-miterlimit="10"/>
<path id="Vector_5" d="M5035.58 1119.29C4213.1 1162.68 3968.63 1559.09 4373.93 1726.48C4848.96 1922.96 6744.51 1817.07 7131.83 1782.64C7374.44 1761.06 6163.28 1567.9 6262.02 1362.27C6366.01 1145.87 7156.77 1061.71 6964.89 1069.67C6824.59 1060.17 6028.06 1067.02 5035.58 1119.29Z" stroke="var(--stroke-0, #0059FF)" stroke-width="7.0462" stroke-miterlimit="10"/>
<path id="Vector_6" d="M4865.23 1102.14C3950.97 1136.75 3722.61 1583.86 4188.65 1765.75C4742.4 1981.92 6733.47 1840.3 7224.45 1812.95C7499.97 1797.56 6348.69 1573.63 6414.69 1341.42C6482.55 1099.71 7195.1 997.13 6930.78 1018.02C6761.46 1031.36 5980.03 1059.9 4865.23 1102.14Z" stroke="var(--stroke-0, #0059FF)" stroke-width="7.0462" stroke-miterlimit="10"/>
<path id="Vector_7" d="M4695.09 1084.87C3688.87 1110.91 3476.8 1608.55 4003.92 1804.87C4636.9 2040.69 6725.52 1822.33 7317.78 1843.34C7624.69 1854.14 6535.33 1579.4 6567.91 1320.57C6601.84 1053.63 7221.08 920.894 6897.21 966.435C6695.66 994.591 5932.21 1052.9 4695.09 1084.87Z" stroke="var(--stroke-0, #0059FF)" stroke-width="7.0462" stroke-miterlimit="10"/>
<path id="Vector_8" d="M4524.77 1067.63C3426.77 1085.1 3231.15 1633.05 3819.01 1844.03C4531.56 2099.43 6732.82 1838.18 7410.76 1873.38C7742.44 1890.61 6721.8 1584.9 6720.78 1299.46C6719.76 1007.13 7241.62 844.813 6863.46 914.509C6626.28 958.243 5884.38 1045.98 4524.77 1067.63Z" stroke="var(--stroke-0, #0059FF)" stroke-width="7.0462" stroke-miterlimit="10"/>
<path id="Vector_9" d="M4354.4 1050.36C3164.61 1059.36 2985.97 1657.79 3634.22 1883.18C4425.83 2158.16 6741.95 1853.45 7503.87 1903.61C7861.16 1927.11 6908.72 1590.44 6873.94 1278.49C6838.48 960.935 7260.75 769.346 6829.83 862.775C6555.67 922.164 5836.16 1039.17 4354.4 1050.36Z" stroke="var(--stroke-0, #0059FF)" stroke-width="7.0462" stroke-miterlimit="10"/>
<path id="Vector_10" d="M4184.09 1033.09C2902.51 1033.67 2739.99 1682.4 3449.48 1922.34C4320.49 2216.9 6752.66 1868.49 7597.03 1933.88C7980.78 1963.61 7095.87 1596.09 7026.99 1257.57C6957.26 914.701 7279.6 694.226 6796.26 811.041C6484.43 886.314 5788.51 1032.4 4184.09 1033.09Z" stroke="var(--stroke-0, #0059FF)" stroke-width="7.0462" stroke-miterlimit="10"/>
<path id="Vector_11" d="M4013.75 1015.86C2639.55 1008.17 2494.49 1706.98 3264.72 1961.46C4214.79 2275.56 6764.7 1883.11 7690.16 1964.04C8101.07 1999.96 7282.99 1601.63 7180.01 1236.57C7076.18 868.391 7298.77 619.183 6762.49 759.231C6413 850.582 5740.49 1025.71 4013.75 1015.86Z" stroke="var(--stroke-0, #0059FF)" stroke-width="7.0462" stroke-miterlimit="10"/>
<path id="Vector_12" d="M3843.42 998.591C2377.94 982.398 2248.66 1731.56 3079.97 2000.62C4110.11 2334.25 6778.44 1897.69 7783.3 1994.27C8221.86 2036.35 7470.46 1607.21 7333.21 1215.6C7195.28 822.08 7317.26 544.332 6728.9 707.496C6341.41 814.926 5692.31 1019.05 3843.42 998.591Z" stroke="var(--stroke-0, #0059FF)" stroke-width="7.0462" stroke-miterlimit="10"/>
<path id="Vector_13" d="M3673.08 981.32C2115.65 956.78 2003.84 1756.14 2895.21 2039.77C4005.09 2392.91 6791.5 1912.15 7876.44 2024.38C8342.82 2072.7 7657.75 1612.82 7486.23 1194.53C7314.37 775.692 7336.09 469.442 6695.3 655.646C6269.98 779.307 5644.12 1012.4 3673.08 981.32Z" stroke="var(--stroke-0, #0059FF)" stroke-width="7.0462" stroke-miterlimit="10"/>
<path id="Vector_14" d="M3502.76 964.089C1853.21 931.202 1758.55 1780.87 2710.48 2078.89C3900.1 2451.57 6805.94 1926.57 7969.77 2054.7C8464.48 2109.16 7845.41 1618.32 7639.45 1173.64C7433.49 728.959 7354.94 394.784 6661.73 603.874C6198.41 743.729 5595.96 1005.82 3502.76 964.089Z" stroke="var(--stroke-0, #0059FF)" stroke-width="7.0462" stroke-miterlimit="10"/>
<path id="Vector_15" d="M3332.43 946.818C1590.76 905.623 1513.23 1805.26 2525.56 2118.04C3795.08 2510.38 6821.04 1941.11 8062.74 2084.93C8586.12 2145.58 8032.88 1623.86 7792.48 1152.68C7552.76 683.147 7373.94 320.125 6627.97 552.216C6126.81 708.188 5547.78 999.206 3332.43 946.818Z" stroke="var(--stroke-0, #0059FF)" stroke-width="7.0462" stroke-miterlimit="10"/>
<path id="Vector_16" d="M3162.07 929.548C1328.28 880.045 1270.59 1829.37 2341.28 2157.2C3693.94 2568.3 6837.13 1955.27 8156.36 2115.12C8708.42 2182.01 8221 1629.4 7945.99 1131.71C7672.51 636.838 7393.42 245.429 6594.86 500.445C6055.19 672.648 5499.23 992.667 3162.07 929.548Z" stroke="var(--stroke-0, #0059FF)" stroke-width="7.0462" stroke-miterlimit="10"/>
<path id="Vector_17" d="M2991.76 912.316C1065.84 854.505 1025.12 1853.95 2156.04 2196.28C3588.09 2627.08 6852.25 1969.34 8249.01 2145.28C8830.08 2218.36 8408.15 1634.86 8098.53 1110.6C7791.45 590.335 7411.94 170.655 6560.78 448.518C5983.61 637.107 5450.9 986.09 2991.76 912.316Z" stroke="var(--stroke-0, #0059FF)" stroke-width="7.0462" stroke-miterlimit="10"/>
<path id="Vector_18" d="M2821.42 895.046C802.535 828.965 779.462 1878.57 1971.29 2235.48C3482.74 2685.5 6868.19 1983.88 8342.15 2175.55C8952.91 2254.9 8599.86 1640.36 8251.56 1089.75C7914.79 544.024 7430.94 96.1502 6527.19 396.938C5912.02 601.605 5402.38 979.551 2821.42 895.046Z" stroke="var(--stroke-0, #0059FF)" stroke-width="7.0462" stroke-miterlimit="10"/>
<path id="Vector_19" d="M2651.1 877.777C540.09 804.272 533.813 1903.19 1786.54 2274.63C3377.39 2744.43 6884.49 1998.19 8435.47 2205.78C9074.56 2291.33 8786.66 1645.9 8404.77 1068.79C8033.39 497.714 7449.95 21.5695 6493.44 345.167C5840.44 566.103 5353.19 974.09 2651.1 877.777Z" stroke="var(--stroke-0, #0059FF)" stroke-width="7.0462" stroke-miterlimit="10"/>
<path id="Vector_20" d="M2480.74 860.544C277.605 778.539 288.462 1927.76 1601.76 2313.79C3271.84 2803.13 6900.92 2012.46 8528.58 2236.01C9196.85 2327.79 8973.59 1651.36 8557.76 1047.82C8151.95 451.403 7469.09 -53.0512 6459.82 293.432C5768.3 530.793 5304.81 967.32 2480.74 860.544Z" stroke="var(--stroke-0, #0059FF)" stroke-width="7.0462" stroke-miterlimit="10"/>
<path id="Vector_21" d="M2310.41 843.274C15.1555 752.807 42.6394 1952.38 1417.01 2352.91C3166.49 2861.71 6917.72 2026.77 8621.73 2266.21C9319.35 2364.25 9161.4 1657.02 8710.8 1026.98C8269.7 405.209 7485.38 -127.94 6426.23 241.775C5695.19 494.83 5256.46 960.512 2310.41 843.274Z" stroke="var(--stroke-0, #0059FF)" stroke-width="7.0462" stroke-miterlimit="10"/>
</g>
</svg>
