<svg preserveAspectRatio="none" width="100%" height="100%" overflow="visible" style="display: block;" viewBox="0 0 22 22" fill="none" xmlns="http://www.w3.org/2000/svg">
<path id="Exclude" fill-rule="evenodd" clip-rule="evenodd" d="M1.5621 1.5621C0.561903 2.56229 0 3.91885 0 5.33333V16C0 17.4145 0.561903 18.771 1.5621 19.7712C2.56229 20.7714 3.91885 21.3333 5.33333 21.3333H16C17.4145 21.3333 18.771 20.7714 19.7712 19.7712C20.7714 18.771 21.3333 17.4145 21.3333 16V5.33333C21.3333 3.91885 20.7714 2.56229 19.7712 1.5621C18.771 0.561903 17.4145 0 16 0H5.33333C3.91885 0 2.56229 0.561903 1.5621 1.5621ZM14.4379 6.89484C13.4377 5.89485 12.0807 5.33331 10.6664 5.33331C9.25201 5.3334 7.89502 5.89472 6.8949 6.89484C5.89478 7.89495 5.33346 9.25195 5.33337 10.6663C5.33337 12.0807 5.89491 13.4376 6.8949 14.4378C7.89502 15.4379 9.25201 15.9992 10.6664 15.9993C12.0809 15.9993 13.4377 15.438 14.4379 14.4378C15.4381 13.4376 15.9994 12.0808 15.9994 10.6663C15.9993 9.25195 15.438 7.89495 14.4379 6.89484ZM8.78064 8.78058C9.28066 8.28056 9.95926 7.99942 10.6664 7.99933C11.3735 7.99933 12.0521 8.28069 12.5521 8.78058C13.0521 9.2806 13.3333 9.9592 13.3334 10.6663C13.3334 11.3736 13.0522 12.052 12.5521 12.5521C12.052 13.0522 11.3736 13.3333 10.6664 13.3333C9.95926 13.3332 9.28066 13.0521 8.78064 12.5521C8.28075 12.052 7.99939 11.3734 7.99939 10.6663C7.99948 9.9592 8.28062 9.2806 8.78064 8.78058ZM17.9994 4.66632C17.9992 3.93009 17.4027 3.33331 16.6664 3.33331C15.9303 3.33349 15.3336 3.9302 15.3334 4.66632V4.67999C15.3336 5.41611 15.9303 6.01282 16.6664 6.013C17.4026 6.013 17.9992 5.41622 17.9994 4.67999V4.66632Z" fill="var(--fill-0, #0059FF)"/>
</svg>
