<svg preserveAspectRatio="none" width="100%" height="100%" overflow="visible" style="display: block;" viewBox="0 0 10 7" fill="none" xmlns="http://www.w3.org/2000/svg">
<g id="Group">
<path id="Vector" d="M8.88863 6.96078C8.82593 6.93971 8.73775 6.90142 8.69268 6.87461C8.64761 6.84589 7.50128 5.74296 6.14725 4.41984L3.68215 2.01293L2.51231 3.15607C1.76965 3.87795 1.31112 4.31069 1.26213 4.33559C0.917253 4.50409 0.537103 4.4543 0.268647 4.20921C-0.0233232 3.94305 -0.0840687 3.50839 0.119723 3.17713C0.160873 3.11203 0.701704 2.57014 1.69127 1.60508C3.09625 0.235998 3.20991 0.130684 3.32356 0.0808996C3.50188 0.00622242 3.65276 -0.0167552 3.81344 0.0119668C4.10541 0.0617516 3.87615 -0.146962 6.99768 2.9014C10.129 5.95742 9.94482 5.76211 9.98989 6.04359C10.0408 6.3557 9.89583 6.68313 9.6313 6.85929C9.42163 6.99716 9.11986 7.03928 8.88863 6.96078Z" fill="var(--fill-0, #1A1E2B)"/>
</g>
</svg>
