<svg preserveAspectRatio="none" width="100%" height="100%" overflow="visible" style="display: block;" viewBox="0 0 235 100" fill="none" xmlns="http://www.w3.org/2000/svg">
<g id="Group">
<path id="Vector" d="M39.5751 4.88281e-05L-0.00016276 36.5888L7.24617 44.6239L46.8213 8.035L39.5751 4.88281e-05Z" fill="var(--fill-0, #FF7F00)"/>
<path id="Vector_2" d="M99.6864 52.1784V11.6375H110.345V42.2386H131.435V52.1784H99.6864Z" fill="var(--fill-0, #FAFAFA)"/>
<path id="Vector_3" d="M146.779 11.6369H136.12V52.1956H146.779V11.6369Z" fill="var(--fill-0, #FAFAFA)"/>
<path id="Vector_4" d="M52.8241 57.5419H42.1653V98.1007H52.8241V57.5419Z" fill="var(--fill-0, #FAFAFA)"/>
<path id="Vector_5" d="M23.4164 57.5396H12.7576V98.0984H23.4164V57.5396Z" fill="var(--fill-0, #FAFAFA)"/>
<path id="Vector_6" d="M166.901 52.1778V21.5236H151.439V11.6369H193.005V21.5236H177.56V52.1778H166.901Z" fill="var(--fill-0, #FAFAFA)"/>
<path id="Vector_7" d="M80.3545 99.0363C67.6271 99.0363 58.0201 89.9128 58.0201 77.825C58.0201 65.7373 67.6271 56.525 80.3545 56.525C93.0819 56.525 102.671 65.6485 102.671 77.825C102.671 90.0015 93.0819 99.0363 80.3545 99.0363ZM80.3545 66.1455C78.8077 66.0458 77.2576 66.2785 75.8057 66.8282C74.354 67.3779 73.0336 68.2324 71.9309 69.3354C70.8284 70.4382 69.9687 71.7648 69.4082 73.2279C68.8477 74.6911 68.5991 76.2577 68.6789 77.825C68.599 79.3915 68.8474 80.9574 69.408 82.4198C69.9687 83.882 70.8287 85.2076 71.9316 86.3092C73.0345 87.4107 74.3552 88.2634 75.807 88.8112C77.2587 89.3588 78.8086 89.589 80.3545 89.4868C81.8991 89.5865 83.4469 89.3544 84.8965 88.8053C86.3462 88.2565 87.6648 87.4035 88.7658 86.3022C89.8667 85.2009 90.7252 83.8762 91.2848 82.4152C91.8444 80.9542 92.0924 79.3899 92.0125 77.825C92.0949 76.2586 91.8488 74.6923 91.2904 73.2292C90.7319 71.7661 89.8739 70.4392 88.7726 69.3359C87.6713 68.2327 86.352 67.3779 84.9009 66.828C83.4501 66.2781 81.9007 66.0456 80.3545 66.1455Z" fill="var(--fill-0, #FAFAFA)"/>
<path id="Vector_8" d="M126.227 99.0377C113.412 99.0377 105.751 91.2277 105.751 78.1637V57.5027H116.41V78.2347C116.41 85.5654 119.706 89.2929 126.227 89.2929C132.749 89.2929 136.044 85.5654 136.044 78.2347V57.5027H146.703V78.1104C146.773 91.2277 139.112 99.0377 126.227 99.0377Z" fill="var(--fill-0, #FAFAFA)"/>
<path id="Vector_9" d="M172.19 99.0393C164.91 99.3308 157.754 97.0742 151.924 92.6493L151.171 92.0813L156.272 83.5613L157.184 84.1826C161.801 87.6252 167.403 89.4453 173.137 89.3656C177.695 89.3656 182.551 88.3716 182.551 85.6026C182.551 84.4311 182.305 83.5258 179.15 83.1708L166.37 81.6621C157.342 80.6148 152.941 76.6388 152.941 69.4856C152.941 61.5158 160.111 56.5458 171.629 56.5458C179.991 56.5458 185.917 58.3208 191.422 62.4566L192.193 63.0423L186.934 71.1718L186.057 70.5683C181.825 67.6069 176.752 66.1294 171.612 66.3616C166.195 66.3616 163.442 67.3911 163.442 69.4146C163.442 70.4973 164.073 71.1008 167.474 71.5091L178.887 72.8403C188.196 73.9586 192.912 78.1653 192.912 85.4251C192.929 94.0871 185.373 99.0393 172.19 99.0393Z" fill="var(--fill-0, #FAFAFA)"/>
<path id="Vector_10" d="M83.5874 26.8677H45.6506V36.9675H83.5874V26.8677Z" fill="var(--fill-0, #FAFAFA)"/>
<path id="Vector_11" d="M49.7093 72.7334H13.8763V82.8154H49.7093V72.7334Z" fill="var(--fill-0, #FAFAFA)"/>
<path id="Vector_12" d="M58.0386 52.1784V11.6375H93.9944V21.5952H68.7149V42.0964H93.9944V52.1784H58.0386Z" fill="var(--fill-0, #FAFAFA)"/>
<path id="Vector_13" d="M224.025 26.8677H193.013V36.9675H224.025V26.8677Z" fill="var(--fill-0, #FAFAFA)"/>
<path id="Vector_14" d="M198.476 52.1778V11.6369H234.415V21.5946H209.135V42.0958H234.415V52.1778H198.476Z" fill="var(--fill-0, #FAFAFA)"/>
<path id="Vector_15" d="M224.001 72.7681H198.476V82.8501H224.001V72.7681Z" fill="var(--fill-0, #FAFAFA)"/>
<path id="Vector_16" d="M198.476 98.1007V57.5419H234.415V67.4997H209.135V88.0187H234.415V98.1007H198.476Z" fill="var(--fill-0, #FAFAFA)"/>
</g>
</svg>
