<svg preserveAspectRatio="none" width="100%" height="100%" overflow="visible" style="display: block;" viewBox="0 0 44 44" fill="none" xmlns="http://www.w3.org/2000/svg">
<g id="Frame">
<rect width="43.332" height="43.5" rx="21.666" fill="var(--fill-0, #FCF5FE)" fill-opacity="0.13"/>
<path id="Vector" d="M26.166 28.5H17.166M26.166 28.5C26.9616 28.5 27.7247 28.8161 28.2873 29.3787C28.8499 29.9413 29.166 30.7044 29.166 31.5H14.166C14.166 30.7044 14.4821 29.9413 15.0447 29.3787C15.6073 28.8161 16.3704 28.5 17.166 28.5M26.166 28.5V25.125C26.166 24.504 25.663 24 25.041 24H24.17M17.166 28.5V25.125C17.166 24.504 17.67 24 18.291 24H19.163M24.17 24H19.163M24.17 24C23.6083 23.03 23.2727 21.9457 23.188 20.828M19.163 24C19.7243 23.0299 20.0596 21.9456 20.144 20.828M23.188 20.828C24.196 20.5954 25.1357 20.1334 25.936 19.478M23.188 20.828C22.1865 21.059 21.1455 21.059 20.144 20.828M20.144 20.828C19.1364 20.5952 18.196 20.1333 17.396 19.478M14.916 13.986C13.934 14.129 12.962 14.303 12 14.506C12.223 15.8148 12.8736 17.0127 13.8499 17.9124C14.8263 18.812 16.0734 19.3626 17.396 19.478M14.916 13.986V14.25C14.916 16.358 15.882 18.24 17.396 19.478M14.916 13.986V12.471C17.122 12.16 19.376 12 21.666 12C23.957 12 26.211 12.16 28.416 12.47V13.986M28.416 13.986V14.25C28.416 16.358 27.45 18.24 25.936 19.478M28.416 13.986C29.3933 14.1282 30.3658 14.3016 31.332 14.506C31.1091 15.8146 30.4586 17.0125 29.4824 17.9121C28.5063 18.8117 27.2584 19.3624 25.936 19.478" stroke="var(--stroke-0, #FCF5FE)" stroke-width="1.5" stroke-linecap="round" stroke-linejoin="round"/>
</g>
</svg>
