<svg preserveAspectRatio="none" width="100%" height="100%" overflow="visible" style="display: block;" viewBox="0 0 25 18" fill="none" xmlns="http://www.w3.org/2000/svg">
<g id="Group">
<path id="Vector" d="M22.2216 17.4019C22.0648 17.3493 21.8444 17.2535 21.7317 17.1865C21.619 17.1147 18.7532 14.3574 15.3681 11.0496L9.20538 5.03233L6.28078 7.89017C4.42412 9.69487 3.2778 10.7767 3.15533 10.839C2.29313 11.2602 1.34276 11.1358 0.671618 10.523C-0.058308 9.85763 -0.210172 8.77098 0.299307 7.94283C0.402182 7.78007 1.75426 6.42535 4.22817 4.0127C7.74063 0.589997 8.02477 0.326712 8.3089 0.20225C8.75469 0.0155571 9.1319 -0.0418869 9.53361 0.0299181C10.2635 0.15438 9.69037 -0.367403 17.4942 7.2535C25.3225 14.8936 24.8621 14.4053 24.9747 15.109C25.1021 15.8893 24.7396 16.7078 24.0782 17.1482C23.5541 17.4929 22.7996 17.5982 22.2216 17.4019Z" fill="var(--fill-0, white)"/>
</g>
</svg>
