<svg preserveAspectRatio="none" width="100%" height="100%" overflow="visible" style="display: block;" viewBox="0 0 600 411" fill="none" xmlns="http://www.w3.org/2000/svg">
<path id="Vector 225" d="M514.562 172.036C492.294 167.397 465.593 164.433 455.026 163.531C454.897 167.783 454.562 177.526 454.253 182.474C453.943 187.423 446.649 192.268 443.041 194.072C436.598 196.521 419.613 200.567 403.222 197.165C386.83 193.763 380.928 184.923 380.026 180.928L380.799 154.253C379.639 153.995 374.845 153.247 364.948 152.32C355.052 151.392 324.485 150.644 310.438 150.387C310.567 151.546 310.747 154.639 310.438 157.732C310.052 161.598 305.412 183.247 297.68 192.139C291.495 199.253 283.763 196.649 280.67 194.459C280.799 200.129 281.057 212.242 281.057 215.335C281.057 219.201 282.216 220.361 280.284 225.387C278.737 229.407 268.299 244.845 263.273 252.062C269.201 248.84 282.603 241.856 288.789 239.691C296.521 236.985 322.036 227.706 332.088 225.773C342.139 223.84 346.005 226.933 346.778 228.866C347.552 230.799 347.552 231.572 347.552 237.371C347.552 243.17 347.938 243.557 354.897 249.356C360.464 253.995 374.485 255.67 380.799 255.928C380.155 255.67 378.557 254.923 377.32 253.995C376.082 253.067 375.515 251.546 375.387 250.902C375.515 240.077 375.85 217.655 376.16 214.562C376.546 210.696 393.17 206.057 410.567 201.804C424.485 198.402 448.067 194.459 458.119 192.912C458.119 193.041 459.278 194.923 463.918 201.418C469.716 209.536 490.979 225.387 494.845 229.253C498.711 233.119 505.284 234.278 509.536 233.505C512.938 232.887 516.366 228.093 517.655 225.773C519.845 223.196 526.469 217.732 535.438 216.495C546.649 214.948 557.474 214.562 572.552 219.201C584.613 222.912 589.433 232.088 590.335 236.211L588.015 267.139C588.015 268.041 587.861 271.005 587.242 275.644C586.624 280.284 579.51 284.794 576.031 286.469C577.835 287.5 582.835 290.18 588.402 292.655C593.969 295.129 598.454 297.552 600 298.454L596.907 334.794C593.686 337.371 584.845 343.84 575.258 349.098C565.67 354.356 541.366 363.66 530.412 367.655C526.418 368.557 517.655 369.82 514.562 367.655C510.696 364.948 509.536 361.082 509.149 357.603C508.763 354.124 508.376 350.644 506.83 347.552C505.284 344.459 501.031 339.433 488.273 335.567C478.067 332.474 467.268 332.732 463.144 333.247C463.015 333.376 464.459 333.943 471.263 335.18C478.067 336.418 481.83 341.108 482.861 343.299C482.474 355.026 481.546 379.098 480.928 381.572C480.155 384.665 479.768 384.665 452.706 395.49C431.057 404.149 400.644 409.407 388.144 410.954C387.629 409.278 386.443 405.619 385.825 404.381C385.052 402.835 381.572 396.263 371.134 383.505C362.784 373.299 351.418 363.789 346.778 360.309C345.747 359.278 342.371 357.526 337.113 358.763C330.541 360.309 333.247 365.722 319.716 373.84C306.186 381.959 282.603 383.505 268.299 377.32C256.856 372.371 252.191 363.918 251.289 360.309L250.515 325.902C249.613 322.938 249.356 315.541 255.541 309.665C261.727 303.789 272.036 300.258 276.418 299.227C271.649 296.649 261.959 291.495 261.34 291.495C260.722 291.495 260.309 290.464 260.18 289.948L259.407 256.701C254.768 260.954 245.335 269.381 244.716 269.072C244.098 268.763 231.572 264.82 225.387 262.887C218.943 261.598 201.34 258.17 182.474 254.768C163.608 251.366 152.191 251.804 148.84 252.448C149.098 257.732 149.613 269.072 149.613 272.165C149.613 276.031 144.588 282.603 138.402 286.082C132.216 289.562 117.912 296.521 93.9433 293.041C74.768 290.258 69.4588 280.284 69.201 275.644L66.4948 239.691C65.3351 239.433 61.0052 238.763 52.9639 238.144C44.9227 237.526 16.8814 236.856 3.86598 236.598C2.57732 224.613 0 200.026 0 197.552C0 194.459 2.31959 188.66 5.41237 181.314C8.50515 173.969 20.1031 158.892 22.8093 156.186C25.5155 153.479 30.9278 148.454 37.8866 150.387C43.4536 151.933 48.1959 154.897 49.8711 156.186C49.3556 149.613 48.2473 135 47.938 129.124C47.5514 121.778 57.9896 113.66 65.7215 105.541C71.9071 99.0464 84.2782 91.4948 89.6906 88.5309C86.8555 88.5309 79.7164 87.9124 73.8401 85.4381C67.9638 82.9639 65.206 78.9948 64.5617 77.3196C63.9173 69.0722 62.5512 51.8041 62.2419 48.7113C61.8553 44.8454 58.7625 37.1134 67.2677 32.8608C75.7728 28.6082 89.3038 24.7423 99.3553 25.1289C109.407 25.5155 114.046 25.9021 127.577 32.8608C141.108 39.8196 147.293 28.9948 154.252 18.1701C159.819 9.51031 160.696 2.44845 160.438 0C170.232 0.257732 194.304 0.927835 212.242 1.54639C230.18 2.16495 240.335 5.15464 243.17 6.57217L243.556 36.3402C245.747 36.5979 252.216 36.9588 260.567 36.3402C268.917 35.7216 276.159 31.9588 278.737 30.1546C278.608 25.2577 278.428 15 278.737 13.1443C279.123 10.8247 282.603 8.89175 290.721 9.66495C298.84 10.4381 334.794 13.1443 360.309 20.4897C380.721 26.366 422.165 30.4124 440.335 31.701C440.335 27.7062 440.412 19.1753 440.721 17.0103C441.108 14.3041 443.428 10.4382 451.546 7.73199C459.665 5.0258 473.196 3.86601 488.66 6.95879C501.031 9.43302 505.67 15.4639 506.443 18.1701L505.283 38.6598C508.505 38.9176 519.433 39.8196 537.371 41.366C555.309 42.9124 569.845 42.268 574.871 41.7525C575 41.4948 575.644 42.2164 577.19 47.1649C578.737 52.1133 578.35 59.2783 577.964 62.2422C577.706 65.7216 577.036 74.8453 576.417 83.5051C575.644 94.3298 574.871 105.155 572.165 110.567C570 114.897 566.366 115.979 564.819 115.979L563.659 140.335C562.886 143.557 560.025 152.319 554.768 161.598C549.537 170.829 543.362 176.488 540.888 178.196C540.887 178.207 540.874 178.216 540.85 178.222C540.863 178.213 540.875 178.204 540.888 178.196C540.913 177.956 535.81 176.463 514.562 172.036Z" fill="var(--fill-0, black)"/>
</svg>
