<svg preserveAspectRatio="none" width="100%" height="100%" overflow="visible" style="display: block;" viewBox="0 0 15 22" fill="none" xmlns="http://www.w3.org/2000/svg">
<path id="Vector" d="M13.5385 0C13.8148 3.44646e-05 14.0815 0.0959533 14.288 0.269563C14.4945 0.443173 14.6264 0.682399 14.6588 0.941867L14.6667 1.06667V5.33333C14.6666 5.5946 14.5652 5.84676 14.3816 6.042C14.1979 6.23723 13.9449 6.36197 13.6705 6.39253L13.5385 6.4H10.1538V7.46667H13.5385C13.6991 7.46673 13.8578 7.4992 14.0041 7.56192C14.1503 7.62465 14.2807 7.71617 14.3866 7.83038C14.4924 7.94458 14.5713 8.07884 14.6178 8.22416C14.6644 8.36949 14.6776 8.52253 14.6565 8.67307L14.634 8.79253L13.5057 13.0592C13.4497 13.2699 13.3271 13.4594 13.1541 13.6023C12.9811 13.7453 12.7661 13.8349 12.5377 13.8592L12.4103 13.8667H10.1538V20.2667C10.1538 20.5279 10.0524 20.7801 9.86873 20.9753C9.68511 21.1706 9.43208 21.2953 9.15764 21.3259L9.02564 21.3333H4.51282C4.23649 21.3333 3.96977 21.2374 3.76327 21.0638C3.55677 20.8902 3.42484 20.6509 3.39251 20.3915L3.38462 20.2667V13.8667H1.12821C0.85187 13.8666 0.585158 13.7707 0.378657 13.5971C0.172156 13.4235 0.0402286 13.1843 0.0078974 12.9248L0 12.8V8.53333C3.64529e-05 8.27207 0.101489 8.01991 0.285114 7.82467C0.46874 7.62943 0.721768 7.5047 0.996205 7.47413L1.12821 7.46667H3.38462V6.4C3.38455 4.74413 4.06331 3.15268 5.27827 1.96003C6.49323 0.767378 8.14983 0.0663618 9.9 0.00426661L10.1538 0H13.5385Z" fill="var(--fill-0, #0059FF)"/>
</svg>
