<svg preserveAspectRatio="none" width="100%" height="100%" overflow="visible" style="display: block;" viewBox="0 0 25 18" fill="none" xmlns="http://www.w3.org/2000/svg">
<g id="Group">
<path id="Vector" d="M8.60127 17.2888C5.70683 17.2217 3.38744 17.03 2.58716 16.7904C1.51372 16.4741 0.684684 15.554 0.47383 14.4566C0.349235 13.7953 0.171927 12.4631 0.0856684 11.5238C-0.0293426 10.2156 -0.0293426 7.19656 0.0904605 5.84518C0.258185 3.90917 0.469038 2.62967 0.689476 2.16483C1.07764 1.35017 1.74853 0.760742 2.57278 0.506759C3.19096 0.319867 4.59506 0.176103 6.97195 0.0610919C8.67794 -0.0203741 15.847 -0.0203741 17.5146 0.0610919C19.5992 0.166519 20.9314 0.28153 21.6454 0.430085C22.6134 0.631354 23.5 1.36934 23.8738 2.28464C24.0511 2.7303 24.2667 4.14398 24.4249 5.94103C24.5207 7.00967 24.5015 10.4744 24.4009 11.6197C24.2763 12.9854 24.0415 14.5621 23.9121 14.9071C23.5431 15.8799 22.647 16.661 21.6598 16.8671C20.7637 17.0492 18.8708 17.1929 16.2687 17.2744C14.9173 17.3175 10.0868 17.3271 8.60127 17.2888ZM12.9525 10.5367C14.6585 9.5447 16.0818 8.70608 16.1153 8.67733C16.1584 8.6342 15.5546 8.26041 13.3359 6.97133C11.7737 6.06562 10.336 5.23179 10.1491 5.11678L9.7993 4.91072V8.62461C9.7993 10.6661 9.81368 12.3385 9.82805 12.3385C9.84243 12.3385 11.2465 11.5286 12.9525 10.5367Z" fill="var(--fill-0, #0059FF)"/>
</g>
</svg>
